<svg xmlns="http://www.w3.org/2000/svg" viewBox="0 0 501.26 500"><path d="M268.19,499.93a15.31,15.31,0,0,1-1.79.07c-80-1.47-143.59-7-204.18-31.37-23.28-9.36-44.86-21.51-55.5-46.7-9.93-23.52-7.14-47.83-2.56-71.79C17.47,280.5,47,217.62,83.09,157.75,112.16,109.59,145,64.45,188.44,28.53,207,13.15,226.57-.49,252.38,0c17.62.35,32.36,7.62,46.27,17.3,38.24,26.59,67.59,62.11,94,100.21,46.42,67,83.7,138.65,102.2,219.19a273.16,273.16,0,0,1,6.36,53.14c.83,29.26-12.15,51.63-37,66.48-33.4,19.95-70.33,29.28-108,34.77C322.12,496.07,287.6,498.1,268.19,499.93Zm-14.5-80.69c.34,0,.67,0,1,0,10.21-.47,23-.55,35.62-1.83,32-3.24,63.67-8.39,92.8-23.71,19.63-10.31,28.21-27.06,27.17-49.12a149.61,149.61,0,0,0-3.09-24c-11.59-54.27-36.58-102.17-67.94-146.86C325.73,154.38,311,136.19,293,121.33c-24.79-20.44-60.6-20.72-84.69.59-.78.69-1.54,1.39-2.28,2.12-56.66,55.37-94.53,122.09-111.94,200.13-9.47,42.43,2.92,62.93,43,77.71C173.88,415.47,212.33,418.52,253.69,419.24Z" fill="#70a333"/></svg>